<mxfile host="app.diagrams.net" agent="Mozilla/5.0 (Macintosh; Intel Mac OS X 10.15; rv:142.0) Gecko/20100101 Firefox/142.0" version="28.2.3">
  <diagram name="Page-1" id="raW2YchSuK9jDaWqVA-p">
    <mxGraphModel dx="946" dy="648" grid="1" gridSize="10" guides="1" tooltips="1" connect="1" arrows="1" fold="1" page="1" pageScale="1" pageWidth="850" pageHeight="1100" math="0" shadow="0">
      <root>
        <mxCell id="0" />
        <mxCell id="1" parent="0" />
        <mxCell id="Ir6KwzmSXS4UPzS2gLWo-4" style="edgeStyle=orthogonalEdgeStyle;rounded=0;orthogonalLoop=1;jettySize=auto;html=1;exitX=0.5;exitY=1;exitDx=0;exitDy=0;" parent="1" source="Ir6KwzmSXS4UPzS2gLWo-1" target="Ir6KwzmSXS4UPzS2gLWo-2" edge="1">
          <mxGeometry relative="1" as="geometry" />
        </mxCell>
        <mxCell id="Ir6KwzmSXS4UPzS2gLWo-1" value="Landing Page" style="rounded=0;whiteSpace=wrap;html=1;" parent="1" vertex="1">
          <mxGeometry x="365" y="190" width="120" height="60" as="geometry" />
        </mxCell>
        <mxCell id="Ir6KwzmSXS4UPzS2gLWo-6" style="edgeStyle=orthogonalEdgeStyle;rounded=0;orthogonalLoop=1;jettySize=auto;html=1;exitX=0.5;exitY=1;exitDx=0;exitDy=0;entryX=0.5;entryY=0;entryDx=0;entryDy=0;" parent="1" source="Ir6KwzmSXS4UPzS2gLWo-2" target="Ir6KwzmSXS4UPzS2gLWo-5" edge="1">
          <mxGeometry relative="1" as="geometry" />
        </mxCell>
        <mxCell id="Ir6KwzmSXS4UPzS2gLWo-2" value="Account login/creation" style="rounded=0;whiteSpace=wrap;html=1;" parent="1" vertex="1">
          <mxGeometry x="365" y="280" width="120" height="60" as="geometry" />
        </mxCell>
        <mxCell id="Ir6KwzmSXS4UPzS2gLWo-8" style="edgeStyle=orthogonalEdgeStyle;rounded=0;orthogonalLoop=1;jettySize=auto;html=1;exitX=0.5;exitY=1;exitDx=0;exitDy=0;entryX=0.5;entryY=0;entryDx=0;entryDy=0;" parent="1" source="Ir6KwzmSXS4UPzS2gLWo-5" target="Ir6KwzmSXS4UPzS2gLWo-7" edge="1">
          <mxGeometry relative="1" as="geometry" />
        </mxCell>
        <mxCell id="Ir6KwzmSXS4UPzS2gLWo-10" style="edgeStyle=orthogonalEdgeStyle;rounded=0;orthogonalLoop=1;jettySize=auto;html=1;exitX=0.5;exitY=1;exitDx=0;exitDy=0;" parent="1" source="Ir6KwzmSXS4UPzS2gLWo-5" target="Ir6KwzmSXS4UPzS2gLWo-9" edge="1">
          <mxGeometry relative="1" as="geometry" />
        </mxCell>
        <mxCell id="Ir6KwzmSXS4UPzS2gLWo-12" style="edgeStyle=orthogonalEdgeStyle;rounded=0;orthogonalLoop=1;jettySize=auto;html=1;exitX=0.5;exitY=1;exitDx=0;exitDy=0;" parent="1" source="Ir6KwzmSXS4UPzS2gLWo-5" target="Ir6KwzmSXS4UPzS2gLWo-11" edge="1">
          <mxGeometry relative="1" as="geometry" />
        </mxCell>
        <mxCell id="Ir6KwzmSXS4UPzS2gLWo-5" value="Menu Bar" style="rounded=0;whiteSpace=wrap;html=1;" parent="1" vertex="1">
          <mxGeometry x="365" y="370" width="120" height="60" as="geometry" />
        </mxCell>
        <mxCell id="UtXKnPl4fkuWzZWL4MgK-4" style="edgeStyle=orthogonalEdgeStyle;rounded=0;orthogonalLoop=1;jettySize=auto;html=1;entryX=0.5;entryY=0;entryDx=0;entryDy=0;" edge="1" parent="1" source="Ir6KwzmSXS4UPzS2gLWo-7" target="UtXKnPl4fkuWzZWL4MgK-1">
          <mxGeometry relative="1" as="geometry" />
        </mxCell>
        <mxCell id="Ir6KwzmSXS4UPzS2gLWo-7" value="Home/Posts" style="rounded=0;whiteSpace=wrap;html=1;" parent="1" vertex="1">
          <mxGeometry x="230" y="480" width="120" height="60" as="geometry" />
        </mxCell>
        <mxCell id="UtXKnPl4fkuWzZWL4MgK-5" style="edgeStyle=orthogonalEdgeStyle;rounded=0;orthogonalLoop=1;jettySize=auto;html=1;entryX=0.5;entryY=0;entryDx=0;entryDy=0;" edge="1" parent="1" source="Ir6KwzmSXS4UPzS2gLWo-9" target="UtXKnPl4fkuWzZWL4MgK-2">
          <mxGeometry relative="1" as="geometry" />
        </mxCell>
        <mxCell id="Ir6KwzmSXS4UPzS2gLWo-9" value="Contracts" style="rounded=0;whiteSpace=wrap;html=1;" parent="1" vertex="1">
          <mxGeometry x="365" y="480" width="120" height="60" as="geometry" />
        </mxCell>
        <mxCell id="UtXKnPl4fkuWzZWL4MgK-6" style="edgeStyle=orthogonalEdgeStyle;rounded=0;orthogonalLoop=1;jettySize=auto;html=1;entryX=0.5;entryY=0;entryDx=0;entryDy=0;" edge="1" parent="1" source="Ir6KwzmSXS4UPzS2gLWo-11" target="UtXKnPl4fkuWzZWL4MgK-3">
          <mxGeometry relative="1" as="geometry" />
        </mxCell>
        <mxCell id="Ir6KwzmSXS4UPzS2gLWo-11" value="Messages" style="rounded=0;whiteSpace=wrap;html=1;" parent="1" vertex="1">
          <mxGeometry x="500" y="480" width="120" height="60" as="geometry" />
        </mxCell>
        <mxCell id="UtXKnPl4fkuWzZWL4MgK-1" value="Search Bar" style="rounded=0;whiteSpace=wrap;html=1;" vertex="1" parent="1">
          <mxGeometry x="230" y="580" width="120" height="60" as="geometry" />
        </mxCell>
        <mxCell id="UtXKnPl4fkuWzZWL4MgK-2" value="Claim Contract&amp;nbsp;" style="rounded=0;whiteSpace=wrap;html=1;" vertex="1" parent="1">
          <mxGeometry x="365" y="580" width="120" height="60" as="geometry" />
        </mxCell>
        <mxCell id="UtXKnPl4fkuWzZWL4MgK-3" value="Send messege" style="rounded=0;whiteSpace=wrap;html=1;" vertex="1" parent="1">
          <mxGeometry x="500" y="580" width="120" height="60" as="geometry" />
        </mxCell>
      </root>
    </mxGraphModel>
  </diagram>
</mxfile>
